<?xml version="1.0" encoding="utf-8"?>
<!-- Generator: Adobe Illustrator 21.1.0, SVG Export Plug-In . SVG Version: 6.00 Build 0)  -->
<svg version="1.1" id="Layer_1" xmlns="http://www.w3.org/2000/svg" xmlns:xlink="http://www.w3.org/1999/xlink" x="0px" y="0px"
	 viewBox="0 0 359 79" style="enable-background:new 0 0 359 79;" xml:space="preserve">
<style type="text/css">
	.st0{fill:none;stroke:url(#SVGID_1_);stroke-width:18;}
	.st1{fill:#FFFFFF;}
	.st2{fill:none;stroke:#680A80;stroke-miterlimit:10;}
	.st3{fill:#F31072;}
	.st4{fill:none;stroke:#FFFFFF;stroke-miterlimit:10;}
	.st5{fill:#F31072;stroke:#FFFFFF;stroke-miterlimit:10;}
</style>
<linearGradient id="SVGID_1_" gradientUnits="userSpaceOnUse" x1="-98.6" y1="-13811.5" x2="-98.6" y2="-13811.5" gradientTransform="matrix(1 0 0 -1 0 -13759.8896)">
	<stop  offset="0" style="stop-color:#3CB6D2"/>
	<stop  offset="0.5325" style="stop-color:#F20E72"/>
	<stop  offset="1" style="stop-color:#3CB6D2"/>
	<stop  offset="1" style="stop-color:#FE330A"/>
</linearGradient>
<path class="st0" d="M-98.6,51.6"/>
<g>
	<path class="st1" d="M3.4,5.5h15.9v40.6h5.4l19.3-21h9.2L31.5,48.3l17.8,19.2h6.4v6.6H45.6L24.6,52h-5.4v22.1h-7.5v-62H3.4V5.5
		L3.4,5.5z"/>
	<path class="st1" d="M65.4,49.6c0-7.9,2.1-14.2,6.2-18.8c4.1-4.6,10-6.9,17.6-6.9c4.1,0,7.7,0.7,10.6,2c3,1.3,5.4,3.2,7.4,5.4
		c2,2.3,3.4,5,4.4,8.1c0.9,3.1,1.4,6.5,1.4,10.1c0,3.9-0.5,7.5-1.6,10.6c-1,3.2-2.6,5.9-4.6,8.1s-4.5,3.9-7.5,5.1s-6.4,1.8-10.1,1.8
		c-4.1,0-7.6-0.7-10.6-2s-5.5-3.2-7.4-5.4s-3.4-5-4.4-8.1C65.9,56.6,65.4,53.2,65.4,49.6z M73.5,49.6c0,2.3,0.3,4.6,0.8,6.9
		c0.6,2.3,1.5,4.3,2.7,6.2s2.8,3.3,4.8,4.4s4.4,1.7,7.3,1.7c5.2,0,9.1-1.6,11.8-4.9c2.6-3.2,4-8,4-14.3c0-2.4-0.3-4.7-0.8-6.9
		c-0.6-2.3-1.5-4.3-2.7-6.1c-1.3-1.8-2.9-3.3-4.9-4.4s-4.4-1.7-7.3-1.7c-5.2,0-9.1,1.6-11.7,4.8C74.8,38.5,73.5,43.3,73.5,49.6z"/>
	<path class="st1" d="M152.7,5.5h16v51.8c0,0.6,0,1.3,0.1,2.2c0.1,0.9,0.1,1.8,0.2,2.8s0.2,1.9,0.3,2.9c0.1,0.9,0.3,1.8,0.4,2.5h6.6
		v6.4h-13.1l-1-7.5h-0.4c-1.4,2.5-3.6,4.6-6.4,6.2c-2.8,1.7-6.1,2.5-9.8,2.5c-7.4,0-12.8-2.1-16.3-6.2s-5.2-10.6-5.2-19.4
		c0-4.1,0.6-7.8,1.8-10.9c1.2-3.2,2.8-5.8,5-7.9s4.8-3.7,7.9-4.9c3.1-1.1,6.5-1.7,10.3-1.7c1.4,0,2.6,0,3.7,0.1s2.1,0.2,3,0.3
		c0.9,0.1,1.8,0.3,2.6,0.5s1.7,0.5,2.7,0.7V12.1h-8.2V5.5H152.7z M146.9,68.7c4,0,7.1-1,9.4-3.1s3.8-5.1,4.7-9.3V33.6
		c-1.4-1-3-1.7-4.8-2.2s-4.2-0.7-7.1-0.7c-5.2,0-9.3,1.5-12.3,4.6c-3,3-4.5,7.8-4.5,14.4c0,2.7,0.2,5.2,0.7,7.5s1.3,4.3,2.4,6
		s2.7,3,4.5,4C141.8,68.2,144.1,68.7,146.9,68.7z"/>
	<path class="st1" d="M229.2,67.9c-1.2,1-2.6,2-4.2,2.9s-3.3,1.7-5.2,2.4c-1.9,0.7-3.9,1.2-5.9,1.5c-2.1,0.4-4.1,0.5-6.2,0.5
		c-3.9,0-7.4-0.6-10.4-1.8c-3-1.2-5.5-2.9-7.5-5.2c-2-2.3-3.6-4.9-4.6-8.1c-1-3.1-1.6-6.7-1.6-10.6c0-4.1,0.6-7.8,1.7-11
		s2.8-5.9,4.9-8c2.2-2.2,4.8-3.8,7.8-4.9c3.1-1.1,6.5-1.7,10.3-1.7c2.7,0,5.5,0.4,8.1,1.1c2.7,0.7,5,2.1,7.1,4.1s3.6,4.7,4.8,8.2
		c1.1,3.5,1.5,8,1.2,13.6h-37.8c0,5.9,1.6,10.3,4.7,13.2c3.2,2.9,7.4,4.4,12.7,4.4c1.8,0,3.5-0.2,5.2-0.6s3.4-0.9,4.9-1.5
		c1.6-0.6,2.9-1.2,4.2-2c1.2-0.7,2.1-1.4,2.8-2L229.2,67.9z M208.6,30.4c-2.1,0-4.2,0.2-6.1,0.7s-3.6,1.2-5.1,2.3
		c-1.5,1.1-2.7,2.5-3.6,4.2s-1.5,3.9-1.8,6.4h30.4c-0.3-4.3-1.7-7.7-4.2-10C215.8,31.6,212.6,30.4,208.6,30.4z"/>
	<g>
		<path class="st1" d="M285.3,22.9c0,6-2.9,12.7-8.6,20.1S263,58.4,252.8,67.1h34.6v7.1h-43.6v-7.1c1.2-1.2,2.9-2.7,5.1-4.6
			s4.5-4,7-6.3s5-4.8,7.6-7.5s4.9-5.4,7-8.2c2.1-2.8,3.8-5.6,5.1-8.4c1.3-2.8,2-5.5,2-8.1c0-3.9-1-7-3.1-9.3s-5.1-3.4-9.3-3.4
			c-3.5,0-6.5,0.4-8.9,1.2s-4.6,1.9-6.6,3.4l-3.3-5.4c2.9-2.1,6.1-3.6,9.4-4.6c3.3-1,6.9-1.5,10.9-1.5c6.2,0,10.8,1.7,14,5
			C283.7,12.7,285.3,17.2,285.3,22.9z"/>
	</g>
	<g>
		<path class="st1" d="M354.3,52.8h-13.2v21.3h-7.7V52.8h-31.7v-5.7l32.8-41.6h6.6v40.8h13.2L354.3,52.8L354.3,52.8z M333.3,17.8
			l-22.6,28.5h22.6V17.8z"/>
	</g>
</g>
<path class="st2" d="M-94.8,25.5"/>
<path class="st3" d="M-95.2,25.3"/>
<path class="st4" d="M179.3-54.4"/>
<path class="st5" d="M177.6-55.4"/>
<g>
	<g>
		<g>
			<polygon class="st4" points="-110,44.9 -110,24.4 -91,34.6 -91,14.5 -129.8,-6.4 -129.8,34.3 			"/>
		</g>
		<g>
			<polygon class="st4" points="-71.7,25 -71.7,45.1 -53.3,55 -71.7,65 -71.7,65 -73.8,66.1 -82.2,70.6 -90.6,75.1 -110.5,85.9 
				-110.5,64.1 -130.4,53.4 -130.4,116.7 -15.8,55 			"/>
		</g>
	</g>
</g>
<g>
	<g>
		<path class="st1" d="M-72.4-36.2V64.5l-1.6,0.8l-8.5,4.6l-7.9,4.2l-8.4-4.5l-85-45.8l53.3-28.7v17.6L-149,22.9l-1.6,0.9l1.6,0.9
			l57.3,30.8l1.5,0.8v-1.7V-7v-1.6l-1.5,0.8l-20,10.4l-16.2-8.7L-72.4-36.2 M-71.4-37.9l-114.5,61.7l86.8,46.7l8.8,4.8l8.4-4.5
			l8.5-4.6l2.1-1.1v-103H-71.4z M-111.7,3.6L-91.2-7v61.7l-57.3-30.9l19-10.5V-6L-111.7,3.6L-111.7,3.6z"/>
	</g>
</g>
</svg>
